%FSLAX25Y25*%
%MOIN*%
G70*
G01*
G75*
G04 Layer_Color=65535*
%ADD10R,0.05512X0.04921*%
%ADD11R,0.06102X0.04921*%
%ADD12R,0.01772X0.09449*%
%ADD13C,0.00700*%
%ADD14C,0.01500*%
%ADD15C,0.06600*%
%ADD16R,0.06600X0.06600*%
%ADD17C,0.06000*%
%ADD18R,0.06600X0.06600*%
%ADD19C,0.03600*%
%ADD20R,0.04921X0.05512*%
%ADD21C,0.01000*%
%ADD22C,0.00984*%
%ADD23C,0.02362*%
%ADD24C,0.00787*%
D21*
X6000Y5000D02*
G03*
X6000Y5000I-1000J0D01*
G01*
X56000Y-130000D02*
G03*
X56000Y-130000I-1000J0D01*
G01*
X0Y10000D02*
X60000D01*
X0D02*
Y20000D01*
X60000D01*
Y10000D02*
Y20000D01*
X-5000Y-140000D02*
X65000D01*
Y20000D01*
X-5000D02*
X65000D01*
X-5000Y-140000D02*
Y20000D01*
X40000Y-115236D02*
X50000D01*
X40000Y-135000D02*
Y-115236D01*
Y-135000D02*
X50000D01*
Y-115236D01*
X27500Y-113000D02*
X21502D01*
Y-110001D01*
X22502Y-109001D01*
X24501D01*
X25501Y-110001D01*
Y-113000D01*
Y-111001D02*
X27500Y-109001D01*
X21502Y-103003D02*
Y-107002D01*
X24501D01*
X23501Y-105003D01*
Y-104003D01*
X24501Y-103003D01*
X26500D01*
X27500Y-104003D01*
Y-106002D01*
X26500Y-107002D01*
X37500Y-113000D02*
X31502D01*
Y-110001D01*
X32502Y-109001D01*
X34501D01*
X35501Y-110001D01*
Y-113000D01*
Y-111001D02*
X37500Y-109001D01*
Y-104003D02*
X31502D01*
X34501Y-107002D01*
Y-103003D01*
X12502Y-109001D02*
X11502Y-110001D01*
Y-112000D01*
X12502Y-113000D01*
X16500D01*
X17500Y-112000D01*
Y-110001D01*
X16500Y-109001D01*
X17500Y-103003D02*
Y-107002D01*
X13501Y-103003D01*
X12502D01*
X11502Y-104003D01*
Y-106002D01*
X12502Y-107002D01*
X44999Y-30002D02*
X43999Y-29002D01*
X42000D01*
X41000Y-30002D01*
Y-34000D01*
X42000Y-35000D01*
X43999D01*
X44999Y-34000D01*
X46998Y-35000D02*
X48997D01*
X47998D01*
Y-29002D01*
X46998Y-30002D01*
X4502Y-60000D02*
X9500D01*
X10500Y-59000D01*
Y-57001D01*
X9500Y-56001D01*
X4502D01*
X10500Y-54002D02*
Y-52003D01*
Y-53002D01*
X4502D01*
X5502Y-54002D01*
X16999Y7998D02*
X14999D01*
X15999D01*
Y3000D01*
X14999Y2000D01*
X14000D01*
X13000Y3000D01*
X18998Y2000D02*
X20997D01*
X19998D01*
Y7998D01*
X18998Y6998D01*
X41502Y-108501D02*
Y-110501D01*
Y-109501D01*
X46500D01*
X47500Y-110501D01*
Y-111500D01*
X46500Y-112500D01*
X47500Y-102503D02*
Y-106502D01*
X43501Y-102503D01*
X42502D01*
X41502Y-103503D01*
Y-105502D01*
X42502Y-106502D01*
X17000Y-23500D02*
Y-19501D01*
X19666Y-23500D01*
Y-19501D01*
X23664Y-20168D02*
X22998Y-19501D01*
X21665D01*
X20999Y-20168D01*
Y-22833D01*
X21665Y-23500D01*
X22998D01*
X23664Y-22833D01*
Y-21501D01*
X22332D01*
X27663Y-20168D02*
X26997Y-19501D01*
X25664D01*
X24997Y-20168D01*
Y-22833D01*
X25664Y-23500D01*
X26997D01*
X27663Y-22833D01*
X32995Y-20834D02*
X34328Y-23500D01*
X35661Y-20834D01*
X36994Y-23500D02*
X38326D01*
X37660D01*
Y-19501D01*
X36994Y-20168D01*
X40326Y-23500D02*
Y-22833D01*
X40992D01*
Y-23500D01*
X40326D01*
X43658D02*
X44991D01*
X44324D01*
Y-19501D01*
X43658Y-20168D01*
X27166Y-5168D02*
X26499Y-4501D01*
X25166D01*
X24500Y-5168D01*
Y-7834D01*
X25166Y-8500D01*
X26499D01*
X27166Y-7834D01*
X31165Y-5168D02*
X30498Y-4501D01*
X29165D01*
X28499Y-5168D01*
Y-7834D01*
X29165Y-8500D01*
X30498D01*
X31165Y-7834D01*
X35163Y-5168D02*
X34497Y-4501D01*
X33164D01*
X32497Y-5168D01*
Y-5834D01*
X33164Y-6501D01*
X34497D01*
X35163Y-7167D01*
Y-7834D01*
X34497Y-8500D01*
X33164D01*
X32497Y-7834D01*
X47999Y-3000D02*
X44000D01*
X47999Y999D01*
Y1998D01*
X46999Y2998D01*
X45000D01*
X44000Y1998D01*
X49998D02*
X50998Y2998D01*
X52997D01*
X53997Y1998D01*
Y999D01*
X52997Y-1D01*
X53997Y-1001D01*
Y-2000D01*
X52997Y-3000D01*
X50998D01*
X49998Y-2000D01*
Y-1001D01*
X50998Y-1D01*
X49998Y999D01*
Y1998D01*
X50998Y-1D02*
X52997D01*
X6500Y-3000D02*
X8499D01*
X7500D01*
Y2998D01*
X6500Y1998D01*
D22*
X10807Y-83780D02*
G03*
X10807Y-83780I-492J0D01*
G01*
D23*
X15039Y-73543D02*
G03*
X15039Y-73543I-1181J0D01*
G01*
D24*
X12342Y-125394D02*
Y-124606D01*
X17658Y-125394D02*
Y-124606D01*
X37657Y-37894D02*
Y-37106D01*
X32342Y-37894D02*
Y-37106D01*
X9921Y-77480D02*
X50079D01*
X9921Y-62520D02*
X50079D01*
X9921Y-77480D02*
Y-62520D01*
X50079Y-77480D02*
Y-62520D01*
M02*
