%FSLAX25Y25*%
%MOIN*%
G70*
G01*
G75*
G04 Layer_Physical_Order=2*
G04 Layer_Color=16711680*
%ADD10R,0.05512X0.04921*%
%ADD11R,0.06102X0.04921*%
%ADD12R,0.01772X0.09449*%
%ADD13C,0.00700*%
%ADD14C,0.01500*%
%ADD15C,0.06600*%
%ADD16R,0.06600X0.06600*%
%ADD17C,0.06000*%
%ADD18R,0.06600X0.06600*%
%ADD19C,0.03600*%
%ADD20R,0.04921X0.05512*%
G36*
X29035Y15000D02*
X30966D01*
X31103Y13956D01*
X31506Y12983D01*
X32147Y12147D01*
X32983Y11506D01*
X33956Y11103D01*
X35000Y10966D01*
X36044Y11103D01*
X37017Y11506D01*
X37853Y12147D01*
X38494Y12983D01*
X38897Y13956D01*
X39035Y15000D01*
X40966D01*
X41103Y13956D01*
X41506Y12983D01*
X42147Y12147D01*
X42983Y11506D01*
X43956Y11103D01*
X45000Y10966D01*
X46044Y11103D01*
X47017Y11506D01*
X47853Y12147D01*
X48494Y12983D01*
X48897Y13956D01*
X49035Y15000D01*
X50965D01*
X51103Y13956D01*
X51506Y12983D01*
X52147Y12147D01*
X52983Y11506D01*
X53956Y11103D01*
X55000Y10966D01*
Y-48929D01*
X54106D01*
Y-46544D01*
X47784D01*
Y-53456D01*
X54106D01*
Y-51071D01*
X55000D01*
Y-56544D01*
X54606D01*
Y-56544D01*
X48284D01*
Y-63456D01*
X54606D01*
Y-63456D01*
X54646D01*
X55000Y-63810D01*
Y-66544D01*
X54606D01*
Y-66544D01*
X48284D01*
Y-73456D01*
X54606D01*
Y-73456D01*
X54646D01*
X55000Y-73809D01*
Y-76544D01*
X54606D01*
Y-76544D01*
X48284D01*
Y-83456D01*
X54606D01*
Y-83456D01*
X54646D01*
X55000Y-83810D01*
Y-135000D01*
X27201D01*
X26965Y-134559D01*
X27355Y-133976D01*
X27450Y-133500D01*
X22550D01*
X22645Y-133976D01*
X23035Y-134559D01*
X22799Y-135000D01*
X5000D01*
Y-96167D01*
X5462Y-95976D01*
X10243Y-100757D01*
X10243Y-100757D01*
X10590Y-100989D01*
X10664Y-101004D01*
X11198Y-101802D01*
X12025Y-102355D01*
X13000Y-102549D01*
X13975Y-102355D01*
X14802Y-101802D01*
X15355Y-100976D01*
X15549Y-100000D01*
X15355Y-99024D01*
X14802Y-98198D01*
X13975Y-97645D01*
X13000Y-97451D01*
X12025Y-97645D01*
X11198Y-98198D01*
X10755Y-98241D01*
X6571Y-94057D01*
Y-66443D01*
X24257Y-48757D01*
X24257Y-48757D01*
X24489Y-48410D01*
X24571Y-48000D01*
Y-42500D01*
X24489Y-42090D01*
X24257Y-41743D01*
X22757Y-40243D01*
X22410Y-40011D01*
X22000Y-39929D01*
X12291D01*
X11802Y-39198D01*
X10975Y-38645D01*
X10000Y-38451D01*
X9025Y-38645D01*
X8198Y-39198D01*
X7645Y-40025D01*
X7451Y-41000D01*
X7645Y-41976D01*
X8198Y-42802D01*
X9025Y-43355D01*
X10000Y-43549D01*
X10975Y-43355D01*
X11802Y-42802D01*
X12291Y-42071D01*
X19362D01*
X19411Y-42568D01*
X19025Y-42645D01*
X18198Y-43198D01*
X17709Y-43929D01*
X15000D01*
X14590Y-44011D01*
X14243Y-44243D01*
X14243Y-44243D01*
X5462Y-53024D01*
X5000Y-52833D01*
Y1544D01*
X6985D01*
Y-6055D01*
X6984Y-6055D01*
X6985D01*
X7066Y-6465D01*
X7298Y-6812D01*
X7623Y-7137D01*
X7451Y-8000D01*
X7645Y-8975D01*
X8198Y-9802D01*
X9025Y-10355D01*
X10000Y-10549D01*
X10975Y-10355D01*
X11802Y-9802D01*
X12355Y-8975D01*
X12549Y-8000D01*
X12355Y-7025D01*
X11802Y-6198D01*
X10975Y-5645D01*
X10000Y-5451D01*
X9512Y-5548D01*
X9126Y-5231D01*
Y1544D01*
X11216D01*
Y8456D01*
X9126D01*
Y11945D01*
X9044Y12355D01*
X9000Y12421D01*
Y15000D01*
X10966D01*
X11103Y13956D01*
X11506Y12983D01*
X12147Y12147D01*
X12983Y11506D01*
X13466Y11306D01*
Y8456D01*
X11784D01*
Y1544D01*
X18105D01*
Y8456D01*
X16423D01*
Y11260D01*
X17017Y11506D01*
X17853Y12147D01*
X18494Y12983D01*
X18897Y13956D01*
X19035Y15000D01*
X20965D01*
X21031Y15500D01*
X28969D01*
X29035Y15000D01*
D02*
G37*
G36*
X18198Y-46802D02*
X19025Y-47355D01*
X20000Y-47549D01*
X20976Y-47355D01*
X21802Y-46802D01*
X21951Y-46580D01*
X22429Y-46725D01*
Y-47557D01*
X5462Y-64524D01*
X5000Y-64333D01*
Y-56514D01*
X15443Y-46071D01*
X17709D01*
X18198Y-46802D01*
D02*
G37*
%LPC*%
G36*
X31500Y-94500D02*
X29550D01*
X29645Y-94976D01*
X30198Y-95802D01*
X31025Y-96355D01*
X31500Y-96450D01*
Y-94500D01*
D02*
G37*
G36*
X45000Y-115965D02*
X43956Y-116103D01*
X42983Y-116506D01*
X42147Y-117147D01*
X41506Y-117983D01*
X41103Y-118956D01*
X40966Y-120000D01*
X41103Y-121044D01*
X41506Y-122017D01*
X42147Y-122853D01*
X42983Y-123494D01*
X43956Y-123897D01*
X45000Y-124035D01*
X46044Y-123897D01*
X47017Y-123494D01*
X47853Y-122853D01*
X48494Y-122017D01*
X48897Y-121044D01*
X49035Y-120000D01*
X48897Y-118956D01*
X48494Y-117983D01*
X47853Y-117147D01*
X47017Y-116506D01*
X46044Y-116103D01*
X45000Y-115965D01*
D02*
G37*
G36*
X32500Y-91550D02*
Y-93500D01*
X34449D01*
X34355Y-93024D01*
X33802Y-92198D01*
X32976Y-91645D01*
X32500Y-91550D01*
D02*
G37*
G36*
X31500D02*
X31025Y-91645D01*
X30198Y-92198D01*
X29645Y-93024D01*
X29550Y-93500D01*
X31500D01*
Y-91550D01*
D02*
G37*
G36*
X34449Y-94500D02*
X32500D01*
Y-96450D01*
X32976Y-96355D01*
X33802Y-95802D01*
X34355Y-94976D01*
X34449Y-94500D01*
D02*
G37*
G36*
X24500Y-130551D02*
X24024Y-130645D01*
X23198Y-131198D01*
X22645Y-132025D01*
X22550Y-132500D01*
X24500D01*
Y-130551D01*
D02*
G37*
G36*
X49000Y-130500D02*
X45500D01*
Y-134000D01*
X49000D01*
Y-130500D01*
D02*
G37*
G36*
X44500D02*
X41000D01*
Y-134000D01*
X44500D01*
Y-130500D01*
D02*
G37*
G36*
X49000Y-126000D02*
X45500D01*
Y-129500D01*
X49000D01*
Y-126000D01*
D02*
G37*
G36*
X44500D02*
X41000D01*
Y-129500D01*
X44500D01*
Y-126000D01*
D02*
G37*
G36*
X25500Y-130551D02*
Y-132500D01*
X27450D01*
X27355Y-132025D01*
X26802Y-131198D01*
X25975Y-130645D01*
X25500Y-130551D01*
D02*
G37*
G36*
X45000Y-34951D02*
X44025Y-35145D01*
X43198Y-35698D01*
X42645Y-36525D01*
X42451Y-37500D01*
X42645Y-38475D01*
X43022Y-39039D01*
Y-46544D01*
X40894D01*
Y-53456D01*
X43022D01*
Y-56544D01*
X41394D01*
Y-63456D01*
X43077D01*
Y-66544D01*
X41394D01*
Y-73456D01*
X43077D01*
Y-76544D01*
X41394D01*
Y-83456D01*
X47716D01*
Y-76544D01*
X46033D01*
Y-73456D01*
X47716D01*
Y-66544D01*
X46033D01*
Y-63456D01*
X47716D01*
Y-56544D01*
X45978D01*
Y-53456D01*
X47216D01*
Y-46544D01*
X45978D01*
Y-39853D01*
X46802Y-39302D01*
X47355Y-38475D01*
X47549Y-37500D01*
X47355Y-36525D01*
X46802Y-35698D01*
X45976Y-35145D01*
X45000Y-34951D01*
D02*
G37*
G36*
X35500Y-23550D02*
Y-25500D01*
X37449D01*
X37355Y-25025D01*
X36802Y-24198D01*
X35976Y-23645D01*
X35500Y-23550D01*
D02*
G37*
G36*
X34500D02*
X34025Y-23645D01*
X33198Y-24198D01*
X32645Y-25025D01*
X32550Y-25500D01*
X34500D01*
Y-23550D01*
D02*
G37*
G36*
X34000Y-8951D02*
X33024Y-9145D01*
X32198Y-9698D01*
X31709Y-10429D01*
X28291D01*
X27802Y-9698D01*
X26976Y-9145D01*
X26000Y-8951D01*
X25025Y-9145D01*
X24198Y-9698D01*
X23645Y-10525D01*
X23451Y-11500D01*
X23645Y-12475D01*
X24198Y-13302D01*
X25025Y-13855D01*
X25754Y-14000D01*
Y-14500D01*
X25025Y-14645D01*
X24198Y-15198D01*
X23645Y-16025D01*
X23451Y-17000D01*
X23645Y-17976D01*
X24198Y-18802D01*
X25025Y-19355D01*
X26000Y-19549D01*
X26976Y-19355D01*
X27802Y-18802D01*
X28291Y-18071D01*
X31709D01*
X32198Y-18802D01*
X33024Y-19355D01*
X34000Y-19549D01*
X34975Y-19355D01*
X35802Y-18802D01*
X36355Y-17976D01*
X36549Y-17000D01*
X36355Y-16025D01*
X35802Y-15198D01*
X34975Y-14645D01*
X34246Y-14500D01*
Y-14000D01*
X34975Y-13855D01*
X35802Y-13302D01*
X36355Y-12475D01*
X36549Y-11500D01*
X36355Y-10525D01*
X35802Y-9698D01*
X34975Y-9145D01*
X34000Y-8951D01*
D02*
G37*
G36*
X28969Y14500D02*
X25500D01*
Y11031D01*
X26044Y11103D01*
X27017Y11506D01*
X27853Y12147D01*
X28494Y12983D01*
X28897Y13956D01*
X28969Y14500D01*
D02*
G37*
G36*
X24500D02*
X21031D01*
X21103Y13956D01*
X21506Y12983D01*
X22147Y12147D01*
X22983Y11506D01*
X23956Y11103D01*
X24500Y11031D01*
Y14500D01*
D02*
G37*
G36*
X37449Y-26500D02*
X35500D01*
Y-28449D01*
X35976Y-28355D01*
X36802Y-27802D01*
X37355Y-26976D01*
X37449Y-26500D01*
D02*
G37*
G36*
X38847Y-66602D02*
X36898D01*
Y-68552D01*
X37373Y-68457D01*
X38200Y-67905D01*
X38753Y-67078D01*
X38847Y-66602D01*
D02*
G37*
G36*
X35898D02*
X33948D01*
X34043Y-67078D01*
X34595Y-67905D01*
X35422Y-68457D01*
X35898Y-68552D01*
Y-66602D01*
D02*
G37*
G36*
Y-63653D02*
X35422Y-63747D01*
X34595Y-64300D01*
X34043Y-65127D01*
X33948Y-65602D01*
X35898D01*
Y-63653D01*
D02*
G37*
G36*
X34500Y-26500D02*
X32550D01*
X32645Y-26976D01*
X33198Y-27802D01*
X34025Y-28355D01*
X34500Y-28449D01*
Y-26500D01*
D02*
G37*
G36*
X36898Y-63653D02*
Y-65602D01*
X38847D01*
X38753Y-65127D01*
X38200Y-64300D01*
X37373Y-63747D01*
X36898Y-63653D01*
D02*
G37*
%LPD*%
D13*
X50945Y-50000D02*
X60000D01*
X51445Y-60000D02*
X60000D01*
X31500Y-94000D02*
X32000D01*
X5500Y-94500D02*
Y-66000D01*
X23500Y-48000D01*
Y-42500D01*
X22000Y-41000D02*
X23500Y-42500D01*
X10000Y-41000D02*
X22000D01*
X0Y-60000D02*
X15000Y-45000D01*
X20000D01*
X5500Y-94500D02*
X11000Y-100000D01*
X13000D01*
X8055Y5000D02*
Y11945D01*
Y-6055D02*
Y5000D01*
Y-6055D02*
X9000Y-7000D01*
Y-8000D02*
Y-7000D01*
X26000Y-11500D02*
X34000D01*
X26000Y-17000D02*
X34000D01*
X51445Y-70000D02*
X60000D01*
X51445Y-80000D02*
X60000D01*
D14*
X44500Y-38000D02*
X45000Y-37500D01*
X44500Y-59945D02*
X44555Y-60000D01*
X50000Y500D02*
X50500Y0D01*
X60000D01*
X14945Y5000D02*
Y14945D01*
X44555Y-80000D02*
Y-70000D01*
Y-60000D01*
X44500Y-59945D02*
Y-38000D01*
D15*
X45000Y15000D02*
D03*
X35000D02*
D03*
X25000D02*
D03*
X15000D02*
D03*
X55000D02*
D03*
X45000Y-120000D02*
D03*
D16*
X5000Y15000D02*
D03*
D17*
X60000Y0D02*
D03*
Y-10000D02*
D03*
Y-20000D02*
D03*
Y-30000D02*
D03*
Y-40000D02*
D03*
Y-50000D02*
D03*
Y-60000D02*
D03*
Y-70000D02*
D03*
Y-80000D02*
D03*
Y-90000D02*
D03*
Y-100000D02*
D03*
Y-110000D02*
D03*
Y-120000D02*
D03*
Y-130000D02*
D03*
X0D02*
D03*
Y-120000D02*
D03*
Y-110000D02*
D03*
Y-100000D02*
D03*
Y-90000D02*
D03*
Y-80000D02*
D03*
Y-70000D02*
D03*
Y-60000D02*
D03*
Y-50000D02*
D03*
Y-40000D02*
D03*
Y-30000D02*
D03*
Y-20000D02*
D03*
Y-10000D02*
D03*
Y0D02*
D03*
D18*
X45000Y-130000D02*
D03*
D19*
X35000Y-26000D02*
D03*
X36398Y-66102D02*
D03*
X45000Y-37500D02*
D03*
X32000Y-94000D02*
D03*
X10000Y-41000D02*
D03*
X20000Y-45000D02*
D03*
X13000Y-100000D02*
D03*
X25000Y-133000D02*
D03*
X10000Y-8000D02*
D03*
X26000Y-11500D02*
D03*
X34000D02*
D03*
X26000Y-17000D02*
D03*
X34000D02*
D03*
D20*
X44555Y-60000D02*
D03*
X51445D02*
D03*
X44055Y-50000D02*
D03*
X50945D02*
D03*
X14945Y5000D02*
D03*
X8055D02*
D03*
X51445Y-80000D02*
D03*
X44555D02*
D03*
X51445Y-70000D02*
D03*
X44555D02*
D03*
M02*
