%FSLAX25Y25*%
%MOIN*%
G70*
G01*
G75*
G04 Layer_Physical_Order=1*
G04 Layer_Color=255*
%ADD10R,0.05512X0.04921*%
%ADD11R,0.06102X0.04921*%
%ADD12R,0.01772X0.09449*%
%ADD13C,0.00700*%
%ADD14C,0.01500*%
%ADD15C,0.06600*%
%ADD16R,0.06600X0.06600*%
%ADD17C,0.06000*%
%ADD18R,0.06600X0.06600*%
%ADD19C,0.03600*%
D10*
X35000Y-126445D02*
D03*
Y-119555D02*
D03*
X25000D02*
D03*
Y-126445D02*
D03*
D11*
X15000Y-129429D02*
D03*
Y-120571D02*
D03*
X35000Y-33071D02*
D03*
Y-41929D02*
D03*
D12*
X13366Y-83780D02*
D03*
X15925D02*
D03*
X18484D02*
D03*
X21043D02*
D03*
X23602D02*
D03*
X26161D02*
D03*
X28721D02*
D03*
X31280D02*
D03*
X33839D02*
D03*
X36398D02*
D03*
X38957D02*
D03*
X41516D02*
D03*
X44075D02*
D03*
X46634D02*
D03*
X13366Y-56221D02*
D03*
X15925D02*
D03*
X18484D02*
D03*
X21043D02*
D03*
X23602D02*
D03*
X26161D02*
D03*
X28721D02*
D03*
X31280D02*
D03*
X33839D02*
D03*
X36398D02*
D03*
X38957D02*
D03*
X41516D02*
D03*
X44075D02*
D03*
X46634D02*
D03*
D13*
X55000Y-95000D02*
X60000Y-90000D01*
X55000Y-98500D02*
Y-95000D01*
X47000Y-106500D02*
X55000Y-98500D01*
X31000Y-106500D02*
X47000D01*
X60000Y-33500D02*
Y-30000D01*
X44075Y-49425D02*
X60000Y-33500D01*
X44075Y-56221D02*
Y-49425D01*
X52500Y-27500D02*
X60000Y-20000D01*
X52500Y-37500D02*
Y-27500D01*
X41516Y-48484D02*
X52500Y-37500D01*
X41516Y-56221D02*
Y-48484D01*
X55000Y-10000D02*
X60000D01*
X50000Y-15000D02*
X55000Y-10000D01*
X50000Y-37500D02*
Y-15000D01*
X46500Y-41000D02*
X50000Y-37500D01*
X44000Y-41000D02*
X46500D01*
X38957Y-46043D02*
X44000Y-41000D01*
X38957Y-56221D02*
Y-46043D01*
X15429Y-127429D02*
X21000Y-133000D01*
X36398Y-66102D02*
Y-56221D01*
X46634D02*
X53780D01*
X60000Y-50000D01*
X46634Y-83780D02*
Y-73366D01*
X60000Y-60000D01*
X31280Y-93279D02*
X32000Y-94000D01*
X31280Y-93279D02*
Y-83780D01*
X25000Y-133000D02*
Y-126500D01*
Y-133000D02*
X25429D01*
X21000D02*
X25000D01*
X0Y-10000D02*
X5000Y-15000D01*
Y-46000D02*
Y-15000D01*
Y-46000D02*
X10500Y-51500D01*
Y-62000D02*
Y-51500D01*
X20000Y-45000D02*
X28500D01*
X31280Y-47780D01*
Y-56221D02*
Y-47780D01*
X33839Y-43091D02*
X35000Y-41929D01*
X33839Y-56221D02*
Y-43091D01*
X13366Y-56221D02*
Y-24134D01*
X0Y-50000D02*
X6000D01*
X8000Y-52000D01*
Y-64000D02*
Y-52000D01*
Y-64000D02*
X9500Y-65500D01*
X19500D01*
X21043Y-63957D01*
Y-56221D01*
X18484Y-62516D02*
Y-56221D01*
X17500Y-63500D02*
X18484Y-62516D01*
X12000Y-63500D02*
X17500D01*
X10500Y-62000D02*
X12000Y-63500D01*
X23602Y-65898D02*
Y-56221D01*
X22000Y-67500D02*
X23602Y-65898D01*
X2500Y-67500D02*
X22000D01*
X0Y-70000D02*
X2500Y-67500D01*
X28721Y-67779D02*
Y-56221D01*
X27000Y-69500D02*
X28721Y-67779D01*
X9500Y-69500D02*
X27000D01*
X0Y-79000D02*
X9500Y-69500D01*
X0Y-80000D02*
Y-79000D01*
X9500D02*
X12500Y-76000D01*
X9500Y-127000D02*
Y-79000D01*
X6500Y-130000D02*
X9500Y-127000D01*
X7500Y-77500D02*
X11500Y-73500D01*
X7500Y-118000D02*
Y-77500D01*
X5500Y-120000D02*
X7500Y-118000D01*
X5500Y-76500D02*
X10500Y-71500D01*
X5500Y-106000D02*
Y-76500D01*
X1500Y-110000D02*
X5500Y-106000D01*
X13366Y-99866D02*
Y-83780D01*
X36398D02*
Y-73398D01*
X34500Y-71500D02*
X36398Y-73398D01*
X10500Y-71500D02*
X34500D01*
X0Y-110000D02*
X1500D01*
X33839Y-83780D02*
Y-74839D01*
X32500Y-73500D02*
X33839Y-74839D01*
X11500Y-73500D02*
X32500D01*
X0Y-120000D02*
X5500D01*
X26161Y-83780D02*
Y-77161D01*
X25000Y-76000D02*
X26161Y-77161D01*
X12500Y-76000D02*
X25000D01*
X0Y-130000D02*
X6500D01*
X28721Y-104220D02*
Y-83780D01*
Y-104220D02*
X31000Y-106500D01*
X23602Y-106602D02*
Y-97102D01*
Y-106602D02*
X27000Y-110000D01*
X50000D01*
X60000Y-100000D01*
X23602Y-97102D02*
Y-83780D01*
X21043Y-110543D02*
Y-83780D01*
Y-110543D02*
X23500Y-113000D01*
X53000D01*
X60000Y-120000D01*
X18484Y-112984D02*
Y-83780D01*
Y-112984D02*
X20500Y-115000D01*
X47500D01*
X50000Y-117500D01*
Y-127000D02*
Y-117500D01*
Y-127000D02*
X53000Y-130000D01*
X60000D01*
X37000Y-127000D02*
X45445Y-118555D01*
X35000Y-128445D02*
X36555D01*
X25500Y-119500D02*
X35500D01*
X18000D02*
X25165D01*
X16425Y-119646D02*
Y-83780D01*
X15000Y-120571D02*
X15925Y-119646D01*
X9000Y-8000D02*
X10000Y-9000D01*
Y-41000D02*
Y-9000D01*
X13366Y-24134D02*
X26000Y-11500D01*
X34000D02*
Y14000D01*
X35000Y15000D01*
X34000Y-17000D02*
X45000Y-6000D01*
Y15000D01*
X15925Y-56221D02*
Y-27075D01*
X22500Y-20500D01*
X26000Y-17000D01*
X50500Y-79500D02*
X60000Y-70000D01*
X50500Y-91000D02*
Y-79500D01*
X49000Y-92500D02*
X50500Y-91000D01*
X45000Y-92500D02*
X49000D01*
X44075Y-91575D02*
X45000Y-92500D01*
X44075Y-91575D02*
Y-83780D01*
X53000Y-87000D02*
X60000Y-80000D01*
X53000Y-93000D02*
Y-87000D01*
X51000Y-95000D02*
X53000Y-93000D01*
X43000Y-95000D02*
X51000D01*
X41516Y-93516D02*
X43000Y-95000D01*
X41516Y-93516D02*
Y-83780D01*
D14*
X42000Y-37500D02*
X45000D01*
X37571Y-41929D02*
X42000Y-37500D01*
X35000Y-41929D02*
X37571D01*
X35000Y-33071D02*
Y-26000D01*
X30000Y-41000D02*
Y-2500D01*
Y-41000D02*
X30929Y-41929D01*
X35000D01*
X27500Y0D02*
X30000Y-2500D01*
X15000Y500D02*
Y15000D01*
X0Y0D02*
X27500D01*
D15*
X45000Y15000D02*
D03*
X35000D02*
D03*
X25000D02*
D03*
X15000D02*
D03*
X55000D02*
D03*
X45000Y-120000D02*
D03*
D16*
X5000Y15000D02*
D03*
D17*
X60000Y0D02*
D03*
Y-10000D02*
D03*
Y-20000D02*
D03*
Y-30000D02*
D03*
Y-40000D02*
D03*
Y-50000D02*
D03*
Y-60000D02*
D03*
Y-70000D02*
D03*
Y-80000D02*
D03*
Y-90000D02*
D03*
Y-100000D02*
D03*
Y-110000D02*
D03*
Y-120000D02*
D03*
Y-130000D02*
D03*
X0D02*
D03*
Y-120000D02*
D03*
Y-110000D02*
D03*
Y-100000D02*
D03*
Y-90000D02*
D03*
Y-80000D02*
D03*
Y-70000D02*
D03*
Y-60000D02*
D03*
Y-50000D02*
D03*
Y-40000D02*
D03*
Y-30000D02*
D03*
Y-20000D02*
D03*
Y-10000D02*
D03*
Y0D02*
D03*
D18*
X45000Y-130000D02*
D03*
D19*
X35000Y-26000D02*
D03*
X36398Y-66102D02*
D03*
X45000Y-37500D02*
D03*
X32000Y-94000D02*
D03*
X10000Y-41000D02*
D03*
X20000Y-45000D02*
D03*
X13000Y-100000D02*
D03*
X25000Y-133000D02*
D03*
X10000Y-8000D02*
D03*
X26000Y-11500D02*
D03*
X34000D02*
D03*
X26000Y-17000D02*
D03*
X34000D02*
D03*
M02*
