%FSLAX25Y25*%
%MOIN*%
G70*
G01*
G75*
G04 Layer_Color=16711935*
%ADD10R,0.05512X0.04921*%
%ADD11R,0.06102X0.04921*%
%ADD12R,0.01772X0.09449*%
%ADD13C,0.00700*%
%ADD14C,0.01500*%
%ADD15C,0.06600*%
%ADD16R,0.06600X0.06600*%
%ADD17C,0.06000*%
%ADD18R,0.06600X0.06600*%
%ADD19C,0.03600*%
%ADD20R,0.04921X0.05512*%
%ADD21C,0.01000*%
%ADD22C,0.00984*%
%ADD23C,0.02362*%
%ADD24C,0.00787*%
%ADD25R,0.06312X0.05721*%
%ADD26R,0.06902X0.05721*%
%ADD27R,0.02572X0.10249*%
%ADD28C,0.07400*%
%ADD29R,0.07400X0.07400*%
%ADD30C,0.06800*%
%ADD31R,0.07400X0.07400*%
%ADD32C,0.04400*%
%ADD33R,0.05721X0.06312*%
D28*
X45000Y15000D02*
D03*
X35000D02*
D03*
X25000D02*
D03*
X15000D02*
D03*
X55000D02*
D03*
X45000Y-120000D02*
D03*
D29*
X5000Y15000D02*
D03*
D30*
X60000Y0D02*
D03*
Y-10000D02*
D03*
Y-20000D02*
D03*
Y-30000D02*
D03*
Y-40000D02*
D03*
Y-50000D02*
D03*
Y-60000D02*
D03*
Y-70000D02*
D03*
Y-80000D02*
D03*
Y-90000D02*
D03*
Y-100000D02*
D03*
Y-110000D02*
D03*
Y-120000D02*
D03*
Y-130000D02*
D03*
X0D02*
D03*
Y-120000D02*
D03*
Y-110000D02*
D03*
Y-100000D02*
D03*
Y-90000D02*
D03*
Y-80000D02*
D03*
Y-70000D02*
D03*
Y-60000D02*
D03*
Y-50000D02*
D03*
Y-40000D02*
D03*
Y-30000D02*
D03*
Y-20000D02*
D03*
Y-10000D02*
D03*
Y0D02*
D03*
D31*
X45000Y-130000D02*
D03*
D32*
X35000Y-26000D02*
D03*
X36398Y-66102D02*
D03*
X45000Y-37500D02*
D03*
X32000Y-94000D02*
D03*
X10000Y-41000D02*
D03*
X20000Y-45000D02*
D03*
X13000Y-100000D02*
D03*
X25000Y-133000D02*
D03*
X10000Y-8000D02*
D03*
X26000Y-11500D02*
D03*
X34000D02*
D03*
X26000Y-17000D02*
D03*
X34000D02*
D03*
D33*
X44555Y-60000D02*
D03*
X51445D02*
D03*
X44055Y-50000D02*
D03*
X50945D02*
D03*
X14945Y5000D02*
D03*
X8055D02*
D03*
X51445Y-80000D02*
D03*
X44555D02*
D03*
X51445Y-70000D02*
D03*
X44555D02*
D03*
M02*
