M48
;Layer_Color=9474304
;FILE_FORMAT=2:5
INCH,LZ
;TYPE=PLATED
T1F00S00C0.01600
T2F00S00C0.02900
T3F00S00C0.03900
%
T01
X0025Y-0133
X0013Y-01
X0032Y-0094
X0036398Y-0066102
X0045Y-00375
X0035Y-0026
X0034Y-0017
Y-00115
X0026
Y-0017
X001Y-0008
Y-0041
X002Y-0045
T02
X0Y-013
Y-012
X006
Y-013
Y-011
Y-01
Y-009
Y-008
Y-007
Y-006
Y-005
Y-004
Y-003
Y-002
Y-001
Y0
X0
Y-001
Y-002
Y-003
Y-004
Y-005
Y-006
Y-007
Y-008
Y-009
Y-01
Y-011
T03
X0045Y-013
Y-012
Y0015
X0035
X0025
X0015
X0005
X0055
M30
